# xmcd
# 
# Track frame offsets:
#     150
#     16138
#     32223
#     57194
#     89674
#     123293
# 
# Disc length: 2068
# 
# Revision: 0
# Processed by: cddbd v1.5.2PL0 Copyright (c) Steve Scherf et al.
# Submitted via: BonkEnc v1.0.5
# 
DISCID=46081206
DTITLE=The DiscoBoys - Start All Over Again [CDs)
DYEAR=2007
DGENRE=Dance
TTITLE0=Start all over again (Radio Edit)
TTITLE1=Start all over again (Fonzerelli Edit)
TTITLE2=Start all over again (Extended Mix)
TTITLE3=Start all over again (Fonzerelli Mix)
TTITLE4=Start all over again (Club Mix)
TTITLE5=Fly So High (Extended Mix)
EXTD=
EXTT0=
EXTT1=
EXTT2=
EXTT3=
EXTT4=
EXTT5=
PLAYORDER=
